/* XPM */
static char *_d9b2801360a4d5ddeec58fb427573fcuQHEYx86kj9Xo2aL[] = {
/* columns rows colors chars-per-pixel */
"64 64 15 1 ",
"  c #403018",
". c #382C14",
"X c #28200C",
"o c #5C4020",
"O c #744C28",
"+ c #80502C",
"@ c #543C1C",
"# c #6C4824",
"$ c #302410",
"% c #181818",
"& c #483818",
"* c #885830",
"= c #905C34",
"- c #9C6038",
"; c black",
/* pixels */
"           .X.                  .X.                  .X.        ",
"oO++++++++O X.@################o X OO+++++#++++++++O@.X O+++++++",
"+##oO#OO##o X.@##oooooooooooo##@ X @o#OO+###O##oO#OO@.X o###++O+",
"#####o#OO#@.X.@###o@ooo###o#ooo@.X.@++##o###O###OOOO@.X.@o##+ooo",
"OO+O+O##+#@.X.@@@ooooo#o#o###o@@.X.@#O+O##o##o+##+#+o X.@o#o+O+#",
"##OO######@.X.@@@ooo##ooo@ooo@o@.X.@o####ooo##O#oO#O@.X.@#+##O#o",
"##++#####o@.X.@@@oo#ooo@o@o@@@o@.X.@o#ooo###o##oo###@.X.@o#oo#o#",
"@#oo@o@o@o@.X.@@@@@@@@@@@@@@@@@@.X.@@o@@oo@o@#@@oo@@@.X ooo#o#o#",
". . . . . .$X$..................$X$.. .$$$$.. ..  ...$X$        ",
"XXXXXXXXXXXXXXXXXXXXXXXXXXXXXXXXXXXXXXX%%%%XXXXXXXXXXXXXXXXXXXXX",
"X.         $    X$.   .X.          $        $X.      $         .",
"X O+++++++Oo+++#$ o++O X OO+++++++O@oO##O##o X O++++OoOOO+++++O ",
"X +++++OO+#o++##$ @OOo X @oO##o#+O#@@#@##@o@.X oO+O#+o#ooO+++Oo ",
"X @o#O++o@@@#O++ @@##@.X.@#O#+#oo#oo&&o+#++@.X.@##o#o##o#O++##@ ",
"X.@oo+O#o@@o#OO# @o##@.X.@#OOoo#oOoO@@++#OO@.X.@o#+O+O+o+##O##@ ",
"X.@#O+++o##+++o#&ooOo@.X.@oO+###oo##@o+#@#+@.X.@@#++OO#o##+oo#@ ",
"X.@o###+@@#OOO#o @@o#o X.@##O+OO#o@@@+Oo@##@.X.@##+###o##o+O#o@ ",
"X.@####+o o+O#oo&@@@o@.X.@#oo###+###O####o@@.X.@##########OO##@ ",
"X.@o@o@o#@@o@@o@.& o@@.X.@@@o@@@oo@@@@o@@o@&.X o@@o@@o@o@ooooo@ ",
"X$. . .  ......$$$X$..$XX... .... .... .. ..$X$ .. .. . . . . ..",
"XXXXXXXXXX%%X%%%XX%%%XX%XXXXXXXXXXXXXXXXXXXXXXXXXXX%XXXXXXXXXXXX",
"           $X$..$  ..$$$       .$X$    @           $$$X         ",
"oO++++++++O X.@O#OO#@&@o++++++O@.X #O+O+++O+OO#####@& $#O+++++++",
"+##oO#OO##o X.o++o@&   #O#OOO##@.X @o#oo##o#o#ooooo@&.X o###++O+",
"#####o#OO#@.X.o+# $.  @++o#+ooo@.X.@##o@oooo@oo@@o@& $X.@@@#+ooo",
"OO+O+O##+#@.X.@#      o@##+#@ #@.X.@oo#@@@@o@o#oo#o& XX.@@@o+O+#",
"##OO######@.X.@#&&&@@@ o###@  o@.X.@@@o@o@@&oo@@@o@ .XX.@####O#o",
"##++#####o@.X.@oO+**##&.@#o @@o@.X.@o@@o@@& oo@ @@@  .X.@oo&o#o#",
"@#oo@o@o@o@.X.@ooo#o@o@&@o@@@o@@.X.@@@@@@.$$o&&@@@@&&.X ooo@o#o#",
". . . . . .$X$$... .. ... ... ..$X$......XXX$$$.. ...XX$  .$.   ",
"XXXXXXXXXXXXX%%XXXXXXXXXXXXXXXXXXXXXXXXXXX%%XXXXXXXXXXXXXXXXXXXX",
"X$.$.  $$.  @   $.$   $X.            @      $X$      $ $       .",
"X o@@####O+++@@ &o@##o X ##O+++++++*=-=*++Oo X O++++Oo#oO+++++O ",
"X @@&o#####O#o@    @o@ X @oO##o#+++++*++#OO@.X oO++O+@@@oO+++Oo ",
"X.@@o###@ &@o@o@  &@@@.X.@#O#+#oo#o#o#o##++o.X.@#O##o@&@#O++##@ ",
"X.@oo##o@ @ooo@ &@@oo@.X.@#OOoo##+#+####+OO@.X.@o#O++@@@+##O##@ ",
"X.@@o###@@o###@@@@&#o@ X.@oO+####O++#o#+##+@.X.@@#O++#o@##+oo#@ ",
"X.@@oo@@@@@ooo@@@@&@@@ X.@##O+O#o#O#o##++##@.X.@##+#O*+o#o+O#o@ ",
"X.@o@o@ ooo#oo@o#& @o@ X.@#oo###@@##O@o##o@@.X.@#####O+o##OO##@ ",
"X.@@@@@ @@@o@@@@@  @@@.X.@@@o@@@ .  @ &@@o@&.X o@@o@@o@@@ooooo@ ",
"X$.....$.........XX$..$X$... ..$%%XXXXX$. ..$X$ .. ..$$$.      .",
"XXXXXXXXXX%%X%%%XX%%%XXXXXXXXXXXX%%%%%XXXXXXXXXXXXXXX%%X$$$$$$$X",
"      $.$..$X$.                 $%X$.$$$$.           $X$       .",
"+####o&o@#o X.@++++++++++++++++O X #OOO##O++++Oo#+++O X.@######o",
"+#ooo@.@&o@ X.o+++O#OOO+O#O+O##o X @o#OOo#O#O#o&@#OOo X.@oooo#o+",
"#oooo@.@ @@.X.@+O+Oo##O++##+O#o@.X.@++##@###O#@ @#OO@.X.@@@o#ooo",
"#o#o#@.@ & $X$@O#o##OO+++#+O+o#@.X.@#O+O@#o##oO##+#+o X.@@oo#o##",
"#oooo@ @&@&$%$@#@oo#++oo@@o##o#@ X.@o###@ooo##O#oO#O@.X.@@#oo@oo",
"#o##oo&@&@@.X.@@ &o++Oo .  ..@#o X.@##oo&o##o##oo#O#@.X.@@o@@oo#",
"#o##oo&@&@@.X.@o  &###@XX$.. @#@ X.@##oo&###o##@o##o@.X @@o@@ooO",
"@@@o@@ @ @@.X.@O     @$%$ . @O#@.X.@@o@@o#@o@@@@oo @&.X.@o@@@@o#",
"........$..$X$.   ..$$X%X... @ .$X$.. ..  . ....  ...$X$.  ...  ",
"XXXXXXXXXXXXXXXXXXXX%%XXXXXXXXXXXXXXXXXXXXXXXXXXXXXXXXXXXXXXXXXX",
"X.      $             $X.                   .X.   .           ..",
"X O+++++++++++++OO+++O X O+++++#O#+++++++++O X O+#oO+++++++++O@ ",
"X o#O#O+++O+++##ooOOOo X o+++*+o#o##o#OO#OOo X oO++O+OO#oO+++O@ ",
"X.@o##+++O#OOO++OO#O#@.X.@#OO+#@@@ & &@##++o.X.@#O##o#OO#O++##@ ",
"X.@oo+OO+OOO#OOOO++##@.X.@#OOoo##o&@&&@#+OO@.X.@o#+O+O+++##O##@ ",
"X.@#O++++O#+++o#++O+o@.X.@oO+####o+*Oo#+##+@.X.@@#++OO#OO#+oo#@ ",
"X.@o###+O#O+OO#oO+#o#o X.@##O+OO#oO##++++##@.X.@##+###o##o+O#o@ ",
"X.@####O+o#+O#o#+##oo@.X.@#oo###Oo#O+####o@@.X.@##########OO##@ ",
"X.@o@o@@o@@o@@o@o@@o@@.X.@@@o@@@@@@@o@o@@o@&.X o@@o@@o@o@ooooo@ ",
"X$. . .. .............$X$... ......... .. ..$X$ .. .. . . . . ..",
"XXXXXXXXXX%%X%%%XX%%%XXXXXXXXXXXXXXXXXXXXXXXXXXXXXXXXXXXXXXXXXXX"
};
